<svg xmlns="http://www.w3.org/2000/svg" xmlns:xlink="http://www.w3.org/1999/xlink" width="1000" zoomAndPan="magnify" viewBox="0 0 750 749.999995" height="1000" preserveAspectRatio="xMidYMid meet" version="1.0"><defs><clipPath id="2b9a8a5e0f"><path d="M 1.03125 1.066406 L 403.332031 1.066406 L 403.332031 724.933594 L 1.03125 724.933594 Z M 1.03125 1.066406 " clip-rule="nonzero"/></clipPath><clipPath id="20160c6bbb"><path d="M 62 216.121094 L 343 216.121094 L 343 510 L 62 510 Z M 62 216.121094 " clip-rule="nonzero"/></clipPath><clipPath id="2b61748f0f"><rect x="0" width="405" y="0" height="726"/></clipPath></defs><g transform="matrix(1, 0, 0, 1, 173, 12)"><g clip-path="url(#2b61748f0f)"><g clip-path="url(#2b9a8a5e0f)"><path fill="#000000" d="M 368.507812 615.441406 L 35.851562 615.441406 L 35.851562 79.363281 L 368.507812 79.363281 Z M 202.183594 703.1875 C 183.960938 703.1875 169.179688 688.425781 169.179688 670.21875 C 169.179688 652.015625 183.960938 637.253906 202.183594 637.253906 C 220.40625 637.253906 235.179688 652.015625 235.179688 670.21875 C 235.179688 688.425781 220.40625 703.1875 202.183594 703.1875 Z M 166.925781 40.214844 C 166.925781 36.589844 169.890625 33.628906 173.515625 33.628906 L 230.84375 33.628906 C 234.472656 33.628906 237.433594 36.589844 237.433594 40.214844 C 237.433594 43.832031 234.472656 46.796875 230.84375 46.796875 L 173.515625 46.796875 C 169.890625 46.796875 166.925781 43.832031 166.925781 40.214844 Z M 356.5625 1.0625 L 47.800781 1.0625 C 21.96875 1.0625 1.03125 21.988281 1.03125 47.789062 L 1.03125 678.269531 C 1.03125 704.074219 21.96875 725 47.800781 725 L 356.5625 725 C 382.390625 725 403.332031 704.074219 403.332031 678.269531 L 403.332031 47.789062 C 403.332031 21.988281 382.390625 1.0625 356.5625 1.0625 " fill-opacity="1" fill-rule="nonzero"/></g><g clip-path="url(#20160c6bbb)"><path fill="#000000" d="M 219.359375 330.851562 L 266.015625 284.203125 L 274.675781 256.53125 L 321.921875 222.394531 L 342.898438 243.378906 L 308.777344 290.628906 L 281.007812 299.285156 L 234.414062 345.90625 Z M 192.597656 401.011719 L 111.332031 482.277344 C 108.09375 485.515625 102.835938 485.515625 99.597656 482.277344 C 96.355469 479.035156 96.355469 473.777344 99.597656 470.539062 L 180.859375 389.273438 L 155.367188 363.78125 L 72.125 447.023438 C 59.378906 459.769531 59.378906 480.433594 72.125 493.179688 C 84.871094 505.925781 105.535156 505.925781 118.28125 493.179688 L 201.519531 409.941406 Z M 114.480469 216.332031 L 140.425781 253.304688 C 143.980469 258.425781 142.726562 265.398438 137.660156 268.964844 L 109.613281 288.679688 C 107.636719 290.054688 105.378906 290.722656 103.144531 290.722656 C 99.613281 290.722656 96.144531 289.058594 93.960938 285.914062 L 67.96875 248.898438 C 59.792969 266.65625 61.003906 288.074219 72.984375 305.183594 C 84.007812 320.863281 101.511719 329.246094 119.34375 329.246094 C 124.570312 329.246094 129.820312 328.527344 134.949219 327.0625 L 235.003906 427.113281 C 225.621094 445.074219 226.222656 467.457031 238.464844 485.316406 C 249.445312 501.320312 267.160156 509.859375 285.195312 509.859375 C 286.609375 509.859375 288.027344 509.808594 289.4375 509.699219 L 263.847656 472.421875 C 260.34375 467.300781 261.644531 460.382812 266.761719 456.816406 L 295.011719 437.40625 C 296.960938 436.070312 299.175781 435.433594 301.371094 435.433594 C 304.945312 435.433594 308.460938 437.128906 310.667969 440.269531 L 336.203125 477.546875 C 344.578125 459.9375 343.582031 438.460938 331.734375 421.25 C 320.765625 405.296875 303.113281 396.71875 285.136719 396.714844 C 280.332031 396.714844 275.507812 397.324219 270.78125 398.574219 L 170.019531 297.816406 C 178.945312 279.855469 177.941406 257.730469 165.648438 240.167969 C 154.632812 224.507812 137.179688 216.121094 119.410156 216.121094 C 117.769531 216.121094 116.121094 216.191406 114.480469 216.332031 Z M 114.480469 216.332031 " fill-opacity="1" fill-rule="nonzero"/></g></g></g></svg>